<svg xmlns="http://www.w3.org/2000/svg" version="1.1" xmlns:xlink="http://www.w3.org/1999/xlink" xmlns:svgjs="http://svgjs.dev/svgjs" width="1000" height="343" viewBox="0 0 1000 343"><g transform="matrix(1,0,0,1,-0.6060606060606233,0.14081262662142535)"><svg viewBox="0 0 396 136" data-background-color="#444444" preserveAspectRatio="xMidYMid meet" height="343" width="1000" xmlns="http://www.w3.org/2000/svg" xmlns:xlink="http://www.w3.org/1999/xlink"><g id="tight-bounds" transform="matrix(1,0,0,1,0.2400000000000091,-0.05583241172161024)"><svg viewBox="0 0 395.52 136.11166482344322" height="136.11166482344322" width="395.52"><g><svg viewBox="0 0 721.9176023411324 248.43599999999995" height="136.11166482344322" width="395.52"><g><rect width="22.292751110399998" height="248.43599999999995" x="418.62305322641055" y="0" fill="#ffffff" opacity="1" stroke-width="0" stroke="transparent" fill-opacity="1" class="rect-r$-0" data-fill-palette-color="primary" rx="1%" id="r$-0" data-palette-color="#ffffff"></rect></g><g transform="matrix(1,0,0,1,0,0.6179999999999808)"><svg viewBox="0 0 360.2650660264106 247.2" height="247.2" width="360.2650660264106"><g id="textblocktransform"><svg viewBox="0 0 360.2650660264106 247.2" height="247.2" width="360.2650660264106" id="textblock"><g><svg viewBox="0 0 360.2650660264106 247.2" height="247.2" width="360.2650660264106"><g transform="matrix(1,0,0,1,0,0)"><svg width="360.2650660264106" viewBox="1.75 -33 60.7 41.65" height="247.2" data-palette-color="#ffffff"><g class="wordmark-text-0" data-fill-palette-color="primary" id="text-0"><path d="M3.3 8.65L3.3 8.65Q1.75 8.65 1.75 7.2L1.75 7.2Q1.75 6.5 1.98 5.3 2.2 4.1 2.5 2.8L2.5 2.8 3 2.8Q3.65 3 4.03 3.08 4.4 3.15 4.9 3.15L4.9 3.15Q5.7 3.15 6.28 2.78 6.85 2.4 7.18 1.2 7.5 0 7.5-2.45L7.5-2.45 7.5-30.1 3.05-32.2 3.05-33 21.45-33 21.45-32.2 17-30.1 17-12.45Q17-9.5 16.25-6.93 15.5-4.35 14.35-2.23 13.2-0.1 12 1.5 10.8 3.1 9.95 4.15L9.95 4.15Q8.45 5.9 6.73 7.28 5 8.65 3.3 8.65ZM42.7 0L24.45 0 24.45-0.8 28.9-2.9 28.9-30.1 24.45-32.2 24.45-33 43.05-33Q49.25-33 53.57-31.05 57.9-29.1 60.17-25.7 62.45-22.3 62.45-18L62.45-18Q62.45-14.1 61-10.8 59.55-7.5 56.87-5.1 54.2-2.7 50.6-1.35 47 0 42.7 0L42.7 0ZM40.4-30.25L40.4-30.25 38.4-30.25 38.4-2.75 41.15-2.75Q46.75-2.75 49.7-6.48 52.65-10.2 52.65-16.45L52.65-16.45Q52.65-22.8 49.62-26.53 46.6-30.25 40.4-30.25Z" fill="#ffffff" data-fill-palette-color="primary"></path></g></svg></g></svg></g></svg></g></svg></g><g transform="matrix(1,0,0,1,499.27379153681056,8.806281689840048)"><svg viewBox="0 0 222.64381080432173 230.82343662031985" height="230.82343662031985" width="222.64381080432173"><g><svg xmlns:x="http://ns.adobe.com/Extensibility/1.0/" xmlns:i="http://ns.adobe.com/AdobeIllustrator/10.0/" xmlns:graph="http://ns.adobe.com/Graphs/1.0/" xmlns:dc="http://purl.org/dc/elements/1.1/" xmlns:cc="http://creativecommons.org/ns#" xmlns:rdf="http://www.w3.org/1999/02/22-rdf-syntax-ns#" xmlns:svg="http://www.w3.org/2000/svg" xmlns:sodipodi="http://sodipodi.sourceforge.net/DTD/sodipodi-0.dtd" xmlns:inkscape="http://www.inkscape.org/namespaces/inkscape" xmlns="http://www.w3.org/2000/svg" xmlns:xlink="http://www.w3.org/1999/xlink" xmlns:a="http://ns.adobe.com/AdobeSVGViewerExtensions/3.0/" version="1.1" x="0" y="0" viewBox="6.488748800000001 4.5 85.94315477177858 89.10058746635909" enable-background="new 0 0 100 100" xml:space="preserve" height="230.82343662031985" width="222.64381080432173" class="icon-icon-0" data-fill-palette-color="accent" id="icon-0"><polygon points="24,29 32.2,26 29.1,22.9 13.8,29 29.1,35.2 32.2,32.1 " fill="#00d1cd" data-fill-palette-color="accent"></polygon><polygon points="30.3,11.8 38.1,15.4 38.1,11.1 23,4.5 29.5,19.6 33.8,19.6 " fill="#00d1cd" data-fill-palette-color="accent"></polygon><polygon points="30.3,46.3 33.8,38.4 29.5,38.4 23,53.5 38.1,47 38.1,42.7 " fill="#00d1cd" data-fill-palette-color="accent"></polygon><polygon points="74.9,29 66.7,32.1 69.8,35.2 85.1,29 69.8,22.9 66.7,26 " fill="#00d1cd" data-fill-palette-color="accent"></polygon><polygon points="68.7,46.3 60.8,42.7 60.8,47 75.9,53.5 69.4,38.4 65.1,38.4 " fill="#00d1cd" data-fill-palette-color="accent"></polygon><polygon points="68.7,11.8 65.1,19.6 69.4,19.6 75.9,4.5 60.8,11.1 60.8,15.4 " fill="#00d1cd" data-fill-palette-color="accent"></polygon><path d="M43.1 22.9l6.6-3.8c1.2-0.7 1.6-2.2 0.9-3.5-0.7-1.2-2.2-1.6-3.5-0.9l-6.6 3.8c-1.2 0.7-1.6 2.2-0.9 3.5S41.9 23.6 43.1 22.9zM39.6 31c0.7 1.2 2.2 1.6 3.5 0.9L58.5 23c1.2-0.7 1.6-2.2 0.9-3.5-0.7-1.2-2.2-1.6-3.5-0.9l-15.4 8.9C39.4 28.2 39 29.7 39.6 31zM59.4 37.1c-0.7-1.2-2.2-1.6-3.5-0.9l-3.1 1.7v7c0 0-3.5 0-4.4 0v-1.6l0 0v-0.1l0 0c0-0.1 0-0.2 0-0.4l0 0c0-0.2-0.1-0.4-0.2-0.6l-1.9-3.5 12.1-7c1.2-0.7 1.6-2.2 0.9-3.5-0.7-1.2-2.2-1.6-3.5-0.9l-15.4 8.9c-1.2 0.7-1.6 2.2-0.9 3.5 0.6 1.1 2 1.5 3.3 1l0 0 1.6 3V55c0 1.6 1.2 3 2.8 3.2 0.7 1 2 1.7 3.6 1.7 1.5 0 2.8-0.7 3.6-1.7 1.5-0.2 2.9-1.5 2.9-3.2V41.3l1.2-0.7C59.7 39.8 60.1 38.3 59.4 37.1zM54.7 55.5h-7.6v-2h7.6V55.5zM54.7 52.4h-7.6v-2h7.6V52.4zM54.7 49.3h-7.6v-2h7.6V49.3z" fill="#00d1cd" data-fill-palette-color="accent"></path><path d="M11.9 61.6c2.1-4.8 6.9-3.2 6.9-3.2s33.5 10 36.4 11.3c1.7 0.8 2.9 2.6 2.9 4.4 0 2-0.6 3.2-2.1 4.3-1.6 1.1-3.2 1.3-5.4 0.6-0.9-0.3-6.2-2-11.7-3.7-8.2-2.6-10.2-3.1-10.7-2.8-0.9 0.5-1.1 1.2-0.7 2 0.2 0.4 4.9 2 12.5 4.5 13.7 4.4 14.2 4.5 17.4 2.6 3.2-1.9 4.7-5.4 3.8-9-0.4-1.7-0.4-1.8 0.3-2.1 0.4-0.2 6.2-2.6 12.8-5.4 13.2-5.7 13.4-5.7 15.6-4.4 2.3 1.3 3.2 5.2 2 6.8C91.2 68.4 69.9 81 69.9 81S50.6 93.7 47.1 93.6c-3.3 0-36.8-13.4-36.8-13.4S5 78.4 6.9 73.6C8.7 69.2 10 66 11.9 61.6z" fill="#00d1cd" data-fill-palette-color="accent"></path></svg></g></svg></g></svg></g><defs></defs></svg><rect width="395.52" height="136.11166482344322" fill="none" stroke="none" visibility="hidden"></rect></g></svg></g></svg>